# xmcd
#
# Track frame offsets: 
#        150
#        19911
#        35116
#        54077
#        74080
#        92320
#        108295
#        128506
#        150571
#        169568
#        183294
#        201458
#        218611
#        242399
#        259417
#
# Disc length: 3710 seconds
#
# Revision: 1
# Processed by: cddbd v1.5.2PL0 Copyright (c) Steve Scherf et al.
# Submitted via: ExactAudioCopyFreeDBPlugin 1.0
#
DISCID=c40e7c0f
DTITLE=Prinz Pi - Kompass ohne Norden (Premium Edition)
DYEAR=2013
DGENRE=Hip-Hop
TTITLE0=Fähnchen im Wind
TTITLE1=Moderne Zeiten
TTITLE2=Kompass ohne Norden
TTITLE3=Fruehstuecksclub der toten Dichter
TTITLE4=100x feat. Casper
TTITLE5=Glück
TTITLE6=Säulen der Gesellschaft
TTITLE7=Rost
TTITLE8=Ende Blut, alles Blut
TTITLE9=Schwarze Wolke
TTITLE10=Die letzte Ex
TTITLE11=Asoziale Kontakte
TTITLE12=Unser Platz
TTITLE13=Schiefe Pyramiden
TTITLE14=Dumm
EXTD=
EXTT0=
EXTT1=
EXTT2=
EXTT3=
EXTT4=
EXTT5=
EXTT6=
EXTT7=
EXTT8=
EXTT9=
EXTT10=
EXTT11=
EXTT12=
EXTT13=
EXTT14=
PLAYORDER=
